<?xml version="1.0" standalone="no"?>
<!DOCTYPE svg PUBLIC "-//W3C//DTD SVG 20010904//EN"
 "http://www.w3.org/TR/2001/REC-SVG-20010904/DTD/svg10.dtd">
<svg version="1.0" xmlns="http://www.w3.org/2000/svg"
 width="700.000000pt" height="700.000000pt" viewBox="0 0 700.000000 700.000000"
 preserveAspectRatio="xMidYMid meet">
<metadata>
Created by potrace 1.14, written by Peter Selinger 2001-2017
</metadata>
<g transform="translate(0.000000,700.000000) scale(0.100000,-0.100000)"
fill="#000000" stroke="none">
<path d="M3275 6994 c-604 -49 -1135 -220 -1626 -524 -372 -230 -737 -573
-997 -937 -343 -479 -550 -1018 -628 -1628 -25 -195 -25 -615 0 -810 78 -610
285 -1149 628 -1628 406 -568 997 -1018 1646 -1253 409 -148 755 -208 1202
-208 276 0 424 12 650 55 1046 199 1942 861 2447 1809 193 363 323 781 379
1225 25 195 25 615 0 810 -89 705 -358 1325 -801 1850 -119 141 -349 366 -490
478 -499 400 -1093 652 -1739 738 -146 19 -546 33 -671 23z m-242 -2330 c17
-9 65 -42 106 -73 l74 -56 261 -3 c144 -2 275 -1 291 2 17 3 62 30 101 60 121
92 99 88 402 84 l267 -3 62 -34 c289 -156 608 -807 710 -1447 24 -151 24 -451
0 -549 -36 -146 -107 -249 -203 -296 -40 -19 -65 -24 -134 -24 -75 0 -93 4
-154 32 -137 66 -256 181 -473 461 l-134 172 -709 0 -709 0 -137 -177 c-283
-367 -462 -504 -643 -491 -213 15 -324 185 -338 515 -24 551 270 1380 605
1710 58 57 119 97 180 119 27 9 108 13 290 14 215 0 258 -2 285 -16z"/>
<path d="M4337 4309 c-11 -6 -25 -26 -33 -45 -32 -76 44 -152 120 -120 40 17
56 42 56 89 0 67 -83 111 -143 76z"/>
<path d="M2490 4180 l0 -100 -100 0 -100 0 0 -70 0 -70 100 0 100 0 0 -100 0
-100 70 0 70 0 0 100 0 100 100 0 100 0 0 70 0 70 -100 0 -100 0 0 100 0 100
-70 0 -70 0 0 -100z"/>
<path d="M4095 4065 c-19 -18 -25 -35 -25 -65 0 -56 34 -90 90 -90 56 0 90 34
90 90 0 56 -34 90 -90 90 -30 0 -47 -6 -65 -25z"/>
<path d="M4556 4064 c-57 -58 -18 -154 62 -154 75 0 120 66 88 129 -31 58
-104 70 -150 25z"/>
<path d="M4329 3831 c-47 -48 -38 -116 21 -146 41 -21 64 -19 98 10 39 32 48
74 28 114 -31 60 -99 70 -147 22z"/>
<path d="M3060 3483 c-94 -34 -140 -94 -140 -182 0 -77 33 -131 102 -165 28
-14 61 -26 72 -26 71 0 157 55 182 117 17 39 18 101 3 140 -30 81 -146 142
-219 116z"/>
<path d="M3815 3466 c-62 -32 -96 -81 -103 -145 -6 -66 12 -113 58 -155 53
-48 108 -63 167 -48 90 25 143 92 143 183 0 140 -141 228 -265 165z"/>
</g>
</svg>
